<svg xmlns="http://www.w3.org/2000/svg" version="1.1" xmlns:xlink="http://www.w3.org/1999/xlink" xmlns:svgjs="http://svgjs.com/svgjs" width="1440" height="800" preserveAspectRatio="none" viewBox="0 0 1440 800">
    <g mask="url(&quot;#SvgjsMask1055&quot;)" fill="none">
        <rect width="1440" height="800" x="0" y="0" fill="#0e2a47"></rect>
        <path d="M0,612.221C111.729,598.033,173.963,477.409,275.518,428.714C398.281,369.85,576.918,410.904,653.959,298.653C729.072,189.211,666.66,37.284,632.136,-90.887C600.813,-207.173,539.166,-308.039,464.984,-402.911C387.279,-502.289,316.325,-632.566,191.976,-653.81C67.551,-675.067,-27.368,-541.175,-149.111,-507.824C-274.293,-473.531,-442.775,-555.407,-527.178,-456.803C-611.722,-358.035,-534.664,-203.9,-519.822,-74.739C-508.596,22.95,-482.419,112.789,-451.017,205.972C-415.748,310.63,-406.545,430.993,-324.485,504.908C-238.088,582.729,-115.352,626.869,0,612.221" fill="#0b2137"></path>
        <path d="M1440 1332.048C1538.432 1325.496 1620.756 1263.607 1701.723 1207.249 1779.974 1152.782 1863.377 1098.1480000000001 1901.549 1010.782 1939.463 924.006 1903.382 827.071 1909.129 732.549 1916.723 607.643 2018.307 464.303 1940.743 366.104 1864.319 269.34900000000005 1703.976 332.662 1581.5720000000001 317.85 1482.369 305.846 1388.621 274.975 1289.456 287.293 1176.122 301.371 1046.476 307.899 971.085 393.683 895.646 479.522 917.156 609.504 906.304 723.266 895.993 831.359 862.4 944.428 909.203 1042.407 955.775 1139.904 1060.036 1191.896 1154.883 1243.651 1244.033 1292.298 1338.665 1338.7939999999999 1440 1332.048" fill="#113357"></path>
    </g>
    <defs>
        <mask id="SvgjsMask1055">
            <rect width="1440" height="800" fill="#ffffff"></rect>
        </mask>
    </defs>
</svg>